<svg xmlns="http://www.w3.org/2000/svg" xmlns:xlink="http://www.w3.org/1999/xlink" id="body_1" preserveAspectRatio="xMinYMin meet" viewBox="0 0 1587 323"><defs><clipPath id="cp_493"><path id="" clip-rule="evenodd" transform="matrix(1 0 0 1 0 0)" d="M10 15L1180 15L1180 227L10 227z" /></clipPath><clipPath id="cp_494"><path id="" clip-rule="evenodd" transform="matrix(1 0 0 1 0 0)" d="M20 160L248 160L248 202L20 202z" /></clipPath><clipPath id="cp_495"><path id="" clip-rule="evenodd" transform="matrix(1 0 0 1 0 0)" d="M328.1 154.5L356 154.5L356 157.3L328.1 157.3z" /></clipPath><clipPath id="cp_496"><path id="" clip-rule="evenodd" transform="matrix(1 0 0 1 0 0)" d="M328.1 170.675L356 170.675L356 171.3L328.1 171.3z" /></clipPath><clipPath id="cp_497"><path id="" clip-rule="evenodd" transform="matrix(1 0 0 1 0 0)" d="M328 182.4L325.8 184.6L328 186.8L330.2 184.6z" /></clipPath><clipPath id="cp_498"><path id="" clip-rule="evenodd" transform="matrix(1 0 0 1 0 0)" d="M326.4 196.5L356 196.5L356 198.72L326.4 198.72z" /></clipPath><clipPath id="cp_499"><path id="" clip-rule="evenodd" transform="matrix(1 0 0 1 0 0)" d="M324.5 196.5L324.5 198.62L326.3 199.625L328.1 198.62L328.1 196.3z" /></clipPath><clipPath id="cp_500"><path id="" clip-rule="evenodd" transform="matrix(1 0 0 1 0 0)" d="M354.2 196.5L354.2 198.82L356 199.625L357.8 198.62L357.8 196.5z" /></clipPath><clipPath id="cp_501"><path id="" clip-rule="evenodd" transform="matrix(1 0 0 1 0 0)" d="M444.4 154.5L474 154.5L474 156.72L444.4 156.72z" /></clipPath><clipPath id="cp_502"><path id="" clip-rule="evenodd" transform="matrix(1 0 0 1 0 0)" d="M442.5 154.5L442.5 156.62L444.3 157.625L446.1 156.62L446.1 154.3z" /></clipPath><clipPath id="cp_503"><path id="" clip-rule="evenodd" transform="matrix(1 0 0 1 0 0)" d="M472.2 154.5L472.2 156.82L474 157.625L475.8 156.62L475.8 154.5z" /></clipPath><clipPath id="cp_504"><path id="" clip-rule="evenodd" transform="matrix(1 0 0 1 0 0)" d="M446.1 168.5L474 168.5L474 171.3L446.1 171.3z" /></clipPath><clipPath id="cp_505"><path id="" clip-rule="evenodd" transform="matrix(1 0 0 1 0 0)" d="M564 154.4L561.8 156.6L564 158.8L566.2 156.6z" /></clipPath><clipPath id="cp_506"><path id="" clip-rule="evenodd" transform="matrix(1 0 0 1 0 0)" d="M560.5 168.5L560.5 170.62L562.3 171.625L564.1 170.62L564.1 168.3z" /></clipPath><clipPath id="cp_507"><path id="" clip-rule="evenodd" transform="matrix(1 0 0 1 0 0)" d="M590.2 168.5L590.2 170.82L592 171.625L593.8 170.62L593.8 168.5z" /></clipPath><clipPath id="cp_508"><path id="" clip-rule="evenodd" transform="matrix(1 0 0 1 0 0)" d="M564.1 182.5L592 182.5L592 185.3L564.1 185.3z" /></clipPath><clipPath id="cp_509"><path id="" clip-rule="evenodd" transform="matrix(1 0 0 1 0 0)" d="M564.1 196.5L592 196.5L592 199.3L564.1 199.3z" /></clipPath><clipPath id="cp_510"><path id="" clip-rule="evenodd" transform="matrix(1 0 0 1 0 0)" d="M682.1 154.5L710 154.5L710 157.3L682.1 157.3z" /></clipPath><clipPath id="cp_511"><path id="" clip-rule="evenodd" transform="matrix(1 0 0 1 0 0)" d="M680.4 168.5L709.9999 168.5L709.9999 170.72L680.4 170.72z" /></clipPath><clipPath id="cp_512"><path id="" clip-rule="evenodd" transform="matrix(1 0 0 1 0 0)" d="M678.5 168.5L678.5 170.62L680.3 171.625L682.1 170.62L682.1 168.3z" /></clipPath><clipPath id="cp_513"><path id="" clip-rule="evenodd" transform="matrix(1 0 0 1 0 0)" d="M708.2 168.5L708.2 170.82L710 171.625L711.8 170.62L711.8 168.5z" /></clipPath><clipPath id="cp_514"><path id="" clip-rule="evenodd" transform="matrix(1 0 0 1 0 0)" d="M798.4 156.5L827.9999 156.5L827.9999 157.35L798.4 157.35z" /></clipPath><clipPath id="cp_515"><path id="" clip-rule="evenodd" transform="matrix(1 0 0 1 0 0)" d="M800.1 168.5L798.125 168.5L798.125 172.45L796.15 172.45L800.1 176.4L804.05 172.45L802.075 172.45L802.075 168.5L800.1 168.5z" /></clipPath><clipPath id="cp_516"><path id="" clip-rule="evenodd" transform="matrix(1 0 0 1 0 0)" d="M10 15L43 15L43 47L10 47z" /></clipPath><clipPath id="cp_517"><path id="" clip-rule="evenodd" transform="matrix(1 0 0 1 0 0)" d="M43 15L83 15L83 47L43 47z" /></clipPath><clipPath id="cp_518"><path id="" clip-rule="evenodd" transform="matrix(1 0 0 1 0 0)" d="M83 15L126 15L126 47L83 47z" /></clipPath><clipPath id="cp_519"><path id="" clip-rule="evenodd" transform="matrix(1 0 0 1 0 0)" d="M126 15L249 15L249 47L126 47z" /></clipPath><clipPath id="cp_520"><path id="" clip-rule="evenodd" transform="matrix(1 0 0 1 0 0)" d="M249 15L307 15L307 47L249 47z" /></clipPath><clipPath id="cp_521"><path id="" clip-rule="evenodd" transform="matrix(1 0 0 1 0 0)" d="M307 15L375 15L375 47L307 47z" /></clipPath><clipPath id="cp_522"><path id="" clip-rule="evenodd" transform="matrix(1 0 0 1 0 0)" d="M375 15L443 15L443 47L375 47z" /></clipPath><clipPath id="cp_523"><path id="" clip-rule="evenodd" transform="matrix(1 0 0 1 0 0)" d="M443 15L516 15L516 47L443 47z" /></clipPath><clipPath id="cp_524"><path id="" clip-rule="evenodd" transform="matrix(1 0 0 1 0 0)" d="M516 15L604 15L604 47L516 47z" /></clipPath></defs><g transform="matrix(1.333333 0 0 1.333333 0 0)" clip-path="url(#cp_493)"><path id="1" transform="matrix(1 0 0 1 0 0)" d="M0 0L1190 0L1190 242L0 242" stroke="none" fill="#FFFFFF" fill-rule="evenodd" /><g><path id="3" transform="matrix(1 0 0 1 0 0)" d="M10 207L1180 207L1180 227L10 227" stroke="#000000" stroke-width="0.125" fill="none" /><g clip-path="url(#cp_494)"><path id="4" transform="matrix(1 0 0 1 0 0)" d="M20 160L248 160L248 202L20 202z" stroke="none" fill="none" /></g><g><path id="6" transform="matrix(1 0 0 1 0 0)" d="M20 174L258 174L258 188L20 188z" stroke="none" fill="none" /></g><path id="9" transform="matrix(1 0 0 1 0 0)" clip-path="url(#cp_495)" d="M328.1 154.5L356 154.5L356 157.3L328.1 157.3z" stroke="#1F5DA9" stroke-width="27.9" fill="none" /><path id="10" transform="matrix(1 0 0 1 0 0)" d="M328 154.4L356 154.4L356 157.3L328 157.3z" stroke="#1F5DA9" stroke-width="0.1" fill="none" /><path id="12" transform="matrix(1 0 0 1 0 0)" clip-path="url(#cp_496)" d="M328.1 170.675L356 170.675L356 171.3L328.1 171.3z" stroke="#0000FF" stroke-width="27.9" fill="none" /><path id="13" transform="matrix(1 0 0 1 0 0)" d="M328 170.575L356 170.575L356 171.3L328 171.3z" stroke="#0000FF" stroke-width="0.1" fill="none" /><path id="15" transform="matrix(1 0 0 1 0 0)" d="M328 182.4L325.8 184.6L328 186.8L330.2 184.6z" stroke="#000000" stroke-width="0.1" fill="none" /><path id="16" transform="matrix(1 0 0 1 0 0)" clip-path="url(#cp_497)" d="M328 182.4L325.8 184.6L328 186.8L330.2 184.6z" stroke="#000000" stroke-width="31.8" fill="none" /><path id="18" transform="matrix(1 0 0 1 0 0)" clip-path="url(#cp_498)" d="M326.4 196.5L356 196.5L356 198.72L326.4 198.72z" stroke="#000000" stroke-width="29.6" fill="none" /><path id="19" transform="matrix(1 0 0 1 0 0)" d="M326.3 196.4L356 196.4L356 198.72L326.3 198.72z" stroke="#000000" stroke-width="0.1" fill="none" /><path id="20" transform="matrix(1 0 0 1 0 0)" clip-path="url(#cp_499)" d="M324.5 196.5L324.5 198.62L326.3 199.625L328.1 198.62L328.1 196.3z" stroke="#000000" stroke-width="4.64" fill="none" /><path id="21" transform="matrix(1 0 0 1 0 0)" d="M324.4 196.4L324.4 198.72L326.3 199.725L328.2 198.72L328.2 196.4z" stroke="#000000" stroke-width="0.1" fill="none" /><path id="22" transform="matrix(1 0 0 1 0 0)" clip-path="url(#cp_500)" d="M354.2 196.5L354.2 198.82L356 199.625L357.8 198.62L357.8 196.5z" stroke="#000000" stroke-width="4.64" fill="none" /><path id="23" transform="matrix(1 0 0 1 0 0)" d="M354.1 196.4L354.1 198.72L356 199.725L357.9 198.72L357.9 196.4z" stroke="#000000" stroke-width="0.1" fill="none" /><path id="25" transform="matrix(1 0 0 1 0 0)" clip-path="url(#cp_501)" d="M444.4 154.5L474 154.5L474 156.72L444.4 156.72z" stroke="#808080" stroke-width="29.6" fill="none" /><path id="26" transform="matrix(1 0 0 1 0 0)" d="M444.3 154.4L474 154.4L474 156.72L444.3 156.72z" stroke="#808080" stroke-width="0.1" fill="none" /><path id="27" transform="matrix(1 0 0 1 0 0)" clip-path="url(#cp_502)" d="M442.5 154.5L442.5 156.62L444.3 157.625L446.1 156.62L446.1 154.3z" stroke="#808080" stroke-width="4.64" fill="none" /><path id="28" transform="matrix(1 0 0 1 0 0)" d="M442.4 154.4L442.4 156.72L444.3 157.725L446.2 156.72L446.2 154.4z" stroke="#808080" stroke-width="0.1" fill="none" /><path id="29" transform="matrix(1 0 0 1 0 0)" clip-path="url(#cp_503)" d="M472.2 154.5L472.2 156.82L474 157.625L475.8 156.62L475.8 154.5z" stroke="#808080" stroke-width="4.64" fill="none" /><path id="30" transform="matrix(1 0 0 1 0 0)" d="M472.1 154.4L472.1 156.72L474 157.725L475.9 156.72L475.9 154.4z" stroke="#808080" stroke-width="0.1" fill="none" /><path id="32" transform="matrix(1 0 0 1 0 0)" clip-path="url(#cp_504)" d="M446.1 168.5L474 168.5L474 171.3L446.1 171.3z" stroke="#808080" stroke-width="27.9" fill="none" /><path id="33" transform="matrix(1 0 0 1 0 0)" d="M446 168.4L474 168.4L474 171.3L446 171.3z" stroke="#808080" stroke-width="0.1" fill="none" /><path id="35" transform="matrix(1 0 0 1 0 0)" d="M446 182.4L446 186.8" stroke="#808080" stroke-width="1.5" fill="none" /><path id="37" transform="matrix(1 0 0 1 0 0)" d="M446 196.4L474 196.4L474 199.3L446 199.3z" stroke="#A9A9A9" stroke-width="0.1" fill="none" /><path id="39" transform="matrix(1 0 0 1 0 0)" d="M564 154.4L561.8 156.6L564 158.8L566.2 156.6z" stroke="#7F7F7F" stroke-width="0.1" fill="none" /><path id="40" transform="matrix(1 0 0 1 0 0)" clip-path="url(#cp_505)" d="M564 154.4L561.8 156.6L564 158.8L566.2 156.6z" stroke="#FFFFFF" stroke-width="31.8" fill="none" /><path id="42" transform="matrix(1 0 0 1 0 0)" d="M562.3 168.4L592 168.4L592 170.72L562.3 170.72z" stroke="#A9A9A9" stroke-width="0.1" fill="none" /><path id="43" transform="matrix(1 0 0 1 0 0)" clip-path="url(#cp_506)" d="M560.5 168.5L560.5 170.62L562.3 171.625L564.1 170.62L564.1 168.3z" stroke="#FFFFFF" stroke-width="4.64" fill="none" /><path id="44" transform="matrix(1 0 0 1 0 0)" d="M560.4 168.4L560.4 170.72L562.3 171.725L564.2 170.72L564.2 168.4z" stroke="#7F7F7F" stroke-width="0.1" fill="none" /><path id="45" transform="matrix(1 0 0 1 0 0)" clip-path="url(#cp_507)" d="M590.2 168.5L590.2 170.82L592 171.625L593.8 170.62L593.8 168.5z" stroke="#FFFFFF" stroke-width="4.64" fill="none" /><path id="46" transform="matrix(1 0 0 1 0 0)" d="M590.1 168.4L590.1 170.72L592 171.725L593.9 170.72L593.9 168.4z" stroke="#7F7F7F" stroke-width="0.1" fill="none" /><path id="48" transform="matrix(1 0 0 1 0 0)" clip-path="url(#cp_508)" d="M564.1 182.5L592 182.5L592 185.3L564.1 185.3z" stroke="#139AA1" stroke-width="27.9" fill="none" /><path id="49" transform="matrix(1 0 0 1 0 0)" d="M564 182.4L592 182.4L592 185.3L564 185.3z" stroke="#139AA1" stroke-width="0.1" fill="none" /><path id="50" transform="matrix(1 0 0 1 0 0)" d="M567 182.525L564 182.525L564 185.05L567 185.05" stroke="#000000" stroke-width="1.25" fill="none" /><path id="51" transform="matrix(1 0 0 1 0 0)" d="M588.5 182.525L591.5 182.525L591.5 185.05L588.5 185.05" stroke="#000000" stroke-width="1.25" fill="none" /><path id="53" transform="matrix(1 0 0 1 0 0)" clip-path="url(#cp_509)" d="M564.1 196.5L592 196.5L592 199.3L564.1 199.3z" stroke="#B9DCE6" stroke-width="27.9" fill="none" /><path id="54" transform="matrix(1 0 0 1 0 0)" d="M564 196.4L592 196.4L592 199.3L564 199.3z" stroke="#B9DCE6" stroke-width="0.1" fill="none" /><path id="56" transform="matrix(1 0 0 1 0 0)" clip-path="url(#cp_510)" d="M682.1 154.5L710 154.5L710 157.3L682.1 157.3z" stroke="#456287" stroke-width="27.9" fill="none" /><path id="57" transform="matrix(1 0 0 1 0 0)" d="M682 154.4L710 154.4L710 157.3L682 157.3z" stroke="#456287" stroke-width="0.1" fill="none" /><path id="59" transform="matrix(1 0 0 1 0 0)" clip-path="url(#cp_511)" d="M680.4 168.5L709.9999 168.5L709.9999 170.72L680.4 170.72z" stroke="#000000" stroke-width="29.6" fill="none" /><path id="60" transform="matrix(1 0 0 1 0 0)" d="M680.3 168.4L710 168.4L710 170.72L680.3 170.72z" stroke="#000000" stroke-width="0.1" fill="none" /><path id="61" transform="matrix(1 0 0 1 0 0)" clip-path="url(#cp_512)" d="M678.5 168.5L678.5 170.62L680.3 171.625L682.1 170.62L682.1 168.3z" stroke="#000000" stroke-width="4.64" fill="none" /><path id="62" transform="matrix(1 0 0 1 0 0)" d="M678.4 168.4L678.4 170.72L680.3 171.725L682.2 170.72L682.2 168.4z" stroke="#000000" stroke-width="0.1" fill="none" /><path id="63" transform="matrix(1 0 0 1 0 0)" clip-path="url(#cp_513)" d="M708.2 168.5L708.2 170.82L710 171.625L711.8 170.62L711.8 168.5z" stroke="#000000" stroke-width="4.64" fill="none" /><path id="64" transform="matrix(1 0 0 1 0 0)" d="M708.1 168.4L708.1 170.72L710 171.725L711.9 170.72L711.9 168.4z" stroke="#000000" stroke-width="0.1" fill="none" /><path id="66" transform="matrix(1 0 0 1 0 0)" d="M685 182.525L682 182.525L682 185.05L685 185.05" stroke="#000000" stroke-width="1.25" fill="none" /><path id="68" transform="matrix(1 0 0 1 0 0)" d="M681.5 196.525L684.5 196.525L684.5 199.05L681.5 199.05" stroke="#000000" stroke-width="1.25" fill="none" /><path id="70" transform="matrix(1 0 0 1 0 0)" clip-path="url(#cp_514)" d="M798.4 156.5L827.9999 156.5L827.9999 157.35L798.4 157.35z" stroke="#3F3F3F" stroke-width="29.6" fill="none" /><path id="71" transform="matrix(1 0 0 1 0 0)" d="M798.3 156.4L828 156.4L828 157.35L798.3 157.35z" stroke="#3F3F3F" stroke-width="0.1" fill="none" /><path id="73" transform="matrix(1 0 0 1 0 0)" clip-path="url(#cp_515)" d="M800.1 168.5L798.125 168.5L798.125 172.45L796.15 172.45L800.1 176.4L804.05 172.45L802.075 172.45L802.075 168.5L800.1 168.5z" stroke="#008000" stroke-width="8" fill="none" /><path id="74" transform="matrix(1 0 0 1 0 0)" d="M800 168.4L798 168.4L798 172.4L796 172.4L800 176.4L804 172.4L802 172.4L802 168.4L800 168.4z" stroke="#008000" stroke-width="0.1" fill="none" /><path id="75" transform="matrix(1 0 0 1 0 0)" d="M10 207L1180 207L1180 147L10 147" stroke="#000000" stroke-width="0.125" fill="none" /></g><g><path id="76" transform="matrix(1 0 0 1 0 0)" d="M10 15L1180 15L1180 15L10 15" stroke="#000000" stroke-width="0.125" fill="none" /><g clip-path="url(#cp_516)"><path id="77" transform="matrix(1 0 0 1 0 0)" d="M10 15L43 15L43 47L10 47z" stroke="#000000" stroke-width="0.125" fill="none" /></g><g clip-path="url(#cp_517)"><path id="79" transform="matrix(1 0 0 1 0 0)" d="M43 15L83 15L83 47L43 47z" stroke="#000000" stroke-width="0.125" fill="none" /><g transform="matrix(1 0 0 1 0 0)"><image x="58" y="17" xlink:href="D:\Aspose2019\Aspose.Tasks-for-.NET\Examples\Data\WorkingWithResources\nestedResources/img_01.png" width="10" height="10" /></g></g><g clip-path="url(#cp_518)"><path id="81" transform="matrix(1 0 0 1 0 0)" d="M83 15L126 15L126 47L83 47z" stroke="#000000" stroke-width="0.125" fill="none" /></g><g clip-path="url(#cp_519)"><path id="83" transform="matrix(1 0 0 1 0 0)" d="M126 15L249 15L249 47L126 47z" stroke="#000000" stroke-width="0.125" fill="none" /></g><g clip-path="url(#cp_520)"><path id="85" transform="matrix(1 0 0 1 0 0)" d="M249 15L307 15L307 47L249 47z" stroke="#000000" stroke-width="0.125" fill="none" /></g><g clip-path="url(#cp_521)"><path id="87" transform="matrix(1 0 0 1 0 0)" d="M307 15L375 15L375 47L307 47z" stroke="#000000" stroke-width="0.125" fill="none" /></g><g clip-path="url(#cp_522)"><path id="89" transform="matrix(1 0 0 1 0 0)" d="M375 15L443 15L443 47L375 47z" stroke="#000000" stroke-width="0.125" fill="none" /></g><g clip-path="url(#cp_523)"><path id="91" transform="matrix(1 0 0 1 0 0)" d="M443 15L516 15L516 47L443 47z" stroke="#000000" stroke-width="0.125" fill="none" /></g><g clip-path="url(#cp_524)"><path id="93" transform="matrix(1 0 0 1 0 0)" d="M516 15L604 15L604 47L516 47z" stroke="#000000" stroke-width="0.125" fill="none" /></g><g><path id="95" transform="matrix(1 0 0 1 0 0)" d="M604 15L1184 15L1184 31L604 31z" stroke="#000000" stroke-width="0.125" fill="none" /><path id="96" transform="matrix(1 0 0 1 0 0)" d="M604 15L580 15" stroke="#000000" stroke-width="0.125" fill="none" /><path id="97" transform="matrix(1 0 0 1 0 0)" d="M604 31L1180 31L1180 47L604 47z" stroke="none" fill="none" /><path id="99" transform="matrix(1 0 0 1 0 0)" d="M624 15L624 47" stroke="#000000" stroke-width="0.125" fill="none" /><path id="102" transform="matrix(1 0 0 1 0 0)" d="M644 31L644 47" stroke="#000000" stroke-width="0.125" fill="none" /><path id="104" transform="matrix(1 0 0 1 0 0)" d="M664 31L664 47" stroke="#000000" stroke-width="0.125" fill="none" /><path id="106" transform="matrix(1 0 0 1 0 0)" d="M684 15L684 47" stroke="#000000" stroke-width="0.125" fill="none" /><path id="109" transform="matrix(1 0 0 1 0 0)" d="M704 31L704 47" stroke="#000000" stroke-width="0.125" fill="none" /><path id="111" transform="matrix(1 0 0 1 0 0)" d="M724 31L724 47" stroke="#000000" stroke-width="0.125" fill="none" /><path id="113" transform="matrix(1 0 0 1 0 0)" d="M744 15L744 47" stroke="#000000" stroke-width="0.125" fill="none" /><path id="116" transform="matrix(1 0 0 1 0 0)" d="M764 31L764 47" stroke="#000000" stroke-width="0.125" fill="none" /><path id="118" transform="matrix(1 0 0 1 0 0)" d="M784 31L784 47" stroke="#000000" stroke-width="0.125" fill="none" /><path id="120" transform="matrix(1 0 0 1 0 0)" d="M804 15L804 47" stroke="#000000" stroke-width="0.125" fill="none" /><path id="123" transform="matrix(1 0 0 1 0 0)" d="M824 31L824 47" stroke="#000000" stroke-width="0.125" fill="none" /><path id="125" transform="matrix(1 0 0 1 0 0)" d="M844 31L844 47" stroke="#000000" stroke-width="0.125" fill="none" /><path id="127" transform="matrix(1 0 0 1 0 0)" d="M864 15L864 47" stroke="#000000" stroke-width="0.125" fill="none" /><path id="130" transform="matrix(1 0 0 1 0 0)" d="M884 31L884 47" stroke="#000000" stroke-width="0.125" fill="none" /><path id="132" transform="matrix(1 0 0 1 0 0)" d="M904 31L904 47" stroke="#000000" stroke-width="0.125" fill="none" /><path id="134" transform="matrix(1 0 0 1 0 0)" d="M924 15L924 47" stroke="#000000" stroke-width="0.125" fill="none" /><path id="137" transform="matrix(1 0 0 1 0 0)" d="M944 31L944 47" stroke="#000000" stroke-width="0.125" fill="none" /><path id="139" transform="matrix(1 0 0 1 0 0)" d="M964 31L964 47" stroke="#000000" stroke-width="0.125" fill="none" /><path id="141" transform="matrix(1 0 0 1 0 0)" d="M984 15L984 47" stroke="#000000" stroke-width="0.125" fill="none" /><path id="144" transform="matrix(1 0 0 1 0 0)" d="M1004 31L1004 47" stroke="#000000" stroke-width="0.125" fill="none" /><path id="146" transform="matrix(1 0 0 1 0 0)" d="M1024 31L1024 47" stroke="#000000" stroke-width="0.125" fill="none" /><path id="148" transform="matrix(1 0 0 1 0 0)" d="M1044 15L1044 47" stroke="#000000" stroke-width="0.125" fill="none" /><path id="151" transform="matrix(1 0 0 1 0 0)" d="M1064 31L1064 47" stroke="#000000" stroke-width="0.125" fill="none" /><path id="153" transform="matrix(1 0 0 1 0 0)" d="M1084 31L1084 47" stroke="#000000" stroke-width="0.125" fill="none" /><path id="155" transform="matrix(1 0 0 1 0 0)" d="M1104 15L1104 47" stroke="#000000" stroke-width="0.125" fill="none" /><path id="158" transform="matrix(1 0 0 1 0 0)" d="M1124 31L1124 47" stroke="#000000" stroke-width="0.125" fill="none" /><path id="160" transform="matrix(1 0 0 1 0 0)" d="M1144 31L1144 47" stroke="#000000" stroke-width="0.125" fill="none" /><path id="162" transform="matrix(1 0 0 1 0 0)" d="M1164 15L1164 47" stroke="#000000" stroke-width="0.125" fill="none" /></g></g><path id="165" transform="matrix(1 0 0 1 0 0)" d="M10 47L604 47" stroke="#000000" stroke-width="0.1" fill="none" /><path id="166" transform="matrix(1 0 0 1 0 0)" d="M10 75L1180 75" stroke="#000000" stroke-width="0.1" fill="none" /><path id="168" transform="matrix(1 0 0 1 0 0)" d="M10 15L1180 15L1180 227L10 227z" stroke="#000000" stroke-width="1" fill="none" /></g></svg>